<svg xmlns="http://www.w3.org/2000/svg" xmlns:xlink="http://www.w3.org/1999/xlink" width="299.779" height="170.97" viewBox="0 0 299.779 170.97">
  <defs>
    <linearGradient id="linear-gradient" x1="0.5" y1="1" x2="0.5" gradientUnits="objectBoundingBox">
      <stop offset="0" stop-color="gray" stop-opacity="0.251"/>
      <stop offset="0.54" stop-color="gray" stop-opacity="0.122"/>
      <stop offset="1" stop-color="gray" stop-opacity="0.102"/>
    </linearGradient>
    <linearGradient id="linear-gradient-2" x1="0" y1="0.5" x2="1" y2="0.5" xlink:href="#linear-gradient"/>
  </defs>
  <g id="Group_318" data-name="Group 318" transform="translate(0.02 0)">
    <path id="Path_87" data-name="Path 87" d="M208.991,273.251c5.791-.33,12.976-4.258,18.563-6q9.918-3.076,19.915-5.919,34.8-9.9,70.35-16.875,3.317-.652,6.645-1.273a47.039,47.039,0,0,0-15.529-18.649,47.7,47.7,0,0,0,.262-4.921c0-25.979-20.761-47.039-46.381-47.039a45.642,45.642,0,0,0-22.509,5.909c-18.133-11.928-41.8-19.147-67.7-19.147-36.8,0-69.1,14.577-87.4,36.528L171.234,210.4l52.759,8.909c-60.146,1.795-120.478,3.579-180.451-.634A47.539,47.539,0,0,0,36.7,278.683h0c0,.941.039,1.874.11,2.8,1.528.438,3,.862,4.326,1.14Q73,289.354,105.276,293.889c-15.856,9.777-35.166,11.16-53.456,15.3a53.6,53.6,0,0,0,34.139,11.792H283.306c21.369,0,38.69-14.876,38.69-33.229h0a47.216,47.216,0,0,0,6.289-17.266C288.743,274.3,248.709,270.99,208.991,273.251Z" transform="translate(-28.796 -150.011)" fill="#6c63ff" opacity="0.1"/>
    <path id="Path_88" data-name="Path 88" d="M327.758,261.268a47.167,47.167,0,0,0-19.915-38.63,48.4,48.4,0,0,0,.262-4.918c0-25.979-20.772-47.031-46.381-47.031a45.668,45.668,0,0,0-22.512,5.906c-18.133-11.933-41.8-19.155-67.7-19.155-42.12,0-78.376,19.116-94.455,46.528-.894-.052-1.792-.081-2.7-.081-25.612,0-46.381,21.06-46.381,47.039a47.306,47.306,0,0,0,7.631,25.855h0c0,23.374,22.061,42.322,49.263,42.322H282.226c21.367,0,38.688-14.879,38.688-33.232h0a47.3,47.3,0,0,0,6.844-24.6Z" transform="translate(-28 -148.609)" fill="#6c63ff" opacity="0.1"/>
    <path id="Path_89" data-name="Path 89" d="M774.45,283.233a2.919,2.919,0,0,0-1.279-.561c-.49-.113-.99-.183-1.488-.262l-6.451-.93a7.6,7.6,0,0,0-1.976-.1,2.508,2.508,0,0,0-1.719.891,1.339,1.339,0,0,0-.3.839,2.212,2.212,0,0,0,.294.87,2.91,2.91,0,0,1,.16.385,8.794,8.794,0,0,0,.231.878.741.741,0,0,0,.11.173.3.3,0,0,1,0,.045c-.071.362.157.739.055,1.087-.089.3-.38.48-.563.728a1.1,1.1,0,0,0-.026,1.208c.2.3.553.511.655.859.134.459-.228.9-.55,1.255a19.468,19.468,0,0,0-1.64,2.068,1.282,1.282,0,0,0-.262.616c-.029.456.409.857.333,1.31-.06.356-.409.574-.71.786a4.419,4.419,0,0,0-2.1,3.247,11.372,11.372,0,0,0-2.537-5.765,4.123,4.123,0,0,1-.941-1.475c-.058-.228-.068-.472-.147-.692-.262-.694-1.1-.993-1.46-1.633-.262-.451-.262-1.03-.587-1.425s-.836-.485-1.116-.867a5.548,5.548,0,0,1-.356-.807,1.764,1.764,0,0,0-.485-.582,1.4,1.4,0,0,0-.121-.086.416.416,0,0,0,.139-.309c0-.307-.3-.508-.569-.66-.341-.194-.673-.4-1-.621a2.335,2.335,0,0,0,.894-.731,2.4,2.4,0,0,0,.341-1.572,1.984,1.984,0,0,0-.469-1.2c-.165-.176-.372-.3-.545-.466a3.824,3.824,0,0,1-.786-1.682,3.423,3.423,0,0,0-1.349-2.028c-.346-.2-.749-.3-1.087-.508a.949.949,0,0,1-.5-1c.079-.262.322-.443.487-.666a1.326,1.326,0,0,0-.333-1.834c-.194-.123-.432-.231-.472-.456a.833.833,0,0,1-.608-.645,2.482,2.482,0,0,1,0-.933q.1-.731.2-1.457a.949.949,0,0,0,.729,0,6.418,6.418,0,0,0,.786,1.027,10.263,10.263,0,0,1,1.834,3.184,1.917,1.917,0,0,0,.689,1.111c.134.076.286.115.417.2a1.557,1.557,0,0,1,.409.419c.314.417.629.831.941,1.247l.016.063a.369.369,0,0,0,.042.1.349.349,0,0,0,.225.115,3.819,3.819,0,0,0,2.882-.1c.755-.472,1.085-1.4,1.724-2.028.453-.443,1.1-.786,1.224-1.41a4.64,4.64,0,0,1-.451-.165c.131-.131.262-.283.44-.456a5.543,5.543,0,0,0,.7-.831,5.359,5.359,0,0,0,.524-1.174q.757-2.159,1.52-4.321c.241-.681.482-1.368.786-2.031.314-.718.687-1.407,1.03-2.112a28.038,28.038,0,0,0,2.039-5.739,2.094,2.094,0,0,0,.081-.836,2.2,2.2,0,0,0-.744-1.132,5.463,5.463,0,0,0-1.116-.925,1.834,1.834,0,0,0-1.4-.225,2.022,2.022,0,0,0-1.247,1.572,16.49,16.49,0,0,0-.162,2.1c-.094,1.009-.44,1.984-.524,3-.045.584,0,1.177-.071,1.761a6.422,6.422,0,0,1-.786,2.17,14.045,14.045,0,0,1-3.388,4.177c-.16.134-.325.262-.482.406a2.5,2.5,0,0,1,.034-.341,2.056,2.056,0,0,0-.333.118,1,1,0,0,0-.039-.393c-.21-.626-1.142-.786-1.31-1.423a2.906,2.906,0,0,1-.045-.477,12.131,12.131,0,0,0-.566-1.572,6.714,6.714,0,0,0-.262-1.512,4.229,4.229,0,0,0-.7-.786,3.084,3.084,0,0,1-.663-1.25c-.034-.128-.065-.262-.1-.39a1.788,1.788,0,0,0-.094-.862c-.238-.592-.854-.972-1.077-1.572-.173-.466-.1-1.048-.425-1.41a1.533,1.533,0,0,0-.621-.375,13.817,13.817,0,0,0-3.739-.883,3.184,3.184,0,0,1-2.023-.608c-.6-.587-.629-1.643-1.331-2.1a1.59,1.59,0,0,0-1.973.459,2.494,2.494,0,0,0-.2.262,2.8,2.8,0,0,1-.055-1.074c0-.089.018-.181.026-.262a5.241,5.241,0,0,0,2.84-2.243V249l.031.081c.076.191.2.375.375.4h0a.524.524,0,0,0,.325-.118,2.691,2.691,0,0,0,.435-.377q.1-.11.189-.228a2.97,2.97,0,0,0,.309-.524,3.114,3.114,0,0,0,.262-.878c.047-.3.052-.616.1-.92a5.671,5.671,0,0,1,.191-.694c.026-.076.052-.152.076-.228s.058-.178.084-.262a6.07,6.07,0,0,0,.262-1.661v-.283a2.765,2.765,0,0,0-.88-1.952c-.451-.369-1.048-.524-1.378-1.025a4.879,4.879,0,0,1-.388-1.161,2.62,2.62,0,0,0-2.06-1.853,2.293,2.293,0,0,0-1.63.448h0l-.037.029h0a2.619,2.619,0,0,0-.65.723,2.162,2.162,0,0,1-.922-.524c-.262-.244-.464-.55-.728-.786a1.874,1.874,0,0,0-1.866-.393,2.23,2.23,0,0,0-1.334,1.528,5.326,5.326,0,0,1-.419,1.612c-.233.351-.616.524-.883.844a1.589,1.589,0,0,0-.33.7h0a1.9,1.9,0,0,0-.045.438h0a.8.8,0,0,0,.016.194v.031a1.391,1.391,0,0,0,.045.212h0a1.832,1.832,0,0,0,.391.718,1.724,1.724,0,0,0,.631.456,2.562,2.562,0,0,0,.3.1l.312.071.11.026a5.225,5.225,0,0,0-.147,4.615,2.114,2.114,0,0,1-.026.22,18.125,18.125,0,0,0,.136,3.089,1.657,1.657,0,0,1-.191,1.177,2.23,2.23,0,0,1-.38.338c.141-.183.286-.364.432-.545a1.869,1.869,0,0,0-1.478-.383,6.848,6.848,0,0,0-2.882.88,3.227,3.227,0,0,1-1.861.708c-.4-.045-.786-.262-1.171-.157a2.375,2.375,0,0,0-.6.356.812.812,0,0,1-.493.152,10.635,10.635,0,0,0-1.541-1.26A12.151,12.151,0,0,1,719,251.285c-.849-1.025-1.7-2.052-2.529-3.087a5.945,5.945,0,0,1-1.546-2.924,2.873,2.873,0,0,1-.018-.333,8.476,8.476,0,0,1,.2-1.572.785.785,0,0,0,0-.38c-.079-.262-.38-.359-.639-.417h0c.034-.2.058-.409.071-.605a45.935,45.935,0,0,1,.464-6.75,4.587,4.587,0,0,1,1.087-2.324c.956-.967,2.557-1.2,3.291-2.345a2.675,2.675,0,0,0-.4-3.144,3.969,3.969,0,0,0-3.087-1.142,1.593,1.593,0,0,0-.9.241,1.91,1.91,0,0,0-.545.828l-1.124,2.733a16.517,16.517,0,0,0-.823,2.2c-.314,1.148-.385,2.358-.634,3.517a9.144,9.144,0,0,1-.888,2.822c-.351.922-.731,1.834-1.048,2.775-.079.236-.354.935-.524,1.572a.958.958,0,0,0-.178.134,4.733,4.733,0,0,0-.372.553c-.238.314-.626.482-.888.786s-.317.862.047,1.014a1.068,1.068,0,0,0,.228.05.744.744,0,0,1,.632,1.038c-.058.409-.262.786-.3,1.195a3.224,3.224,0,0,0,.762,2,17.278,17.278,0,0,0,1.4,1.884c.37.414.786.786,1.158,1.184,1.418,1.457,2.544,3.16,3.818,4.743a10.512,10.512,0,0,0,1.554,1.63,11.71,11.71,0,0,0,1.177.81l2.191,1.389a2.4,2.4,0,0,0,.828.39,1.1,1.1,0,0,0,.294,0c.013.065.024.128.039.194a11.528,11.528,0,0,1,.587,2.01c.042.7-.021,1.415.029,2.123.047.652.191,1.31.228,1.952a12.545,12.545,0,0,1-.524,3.669,21.884,21.884,0,0,1-1.572,5.186,3.049,3.049,0,0,0-.524,1.4.723.723,0,0,0,.016.183h0l-.393.223c-.115.066-.231.131-.335.2a2.8,2.8,0,0,0-1.234,1.245c-.165.453-.089.972-.288,1.412a.619.619,0,0,1-.031.058c-.21.409-.626.713-.721,1.161h0c-.071.343.065.707,0,1.048v.013a3.785,3.785,0,0,0-.141.524.622.622,0,0,0,.016.173,1,1,0,0,0,.314.511,2.1,2.1,0,0,0,.307.244q.168.11.346.2l.068.037c.1.052.2.1.3.149l.068.029c.118.052.239.1.359.142l.084.026c.094.031.191.06.288.084l.065.021.06.013.262.055.1.018q.173.029.354.047h.1c.089,0,.175.013.262.016h.479a2.938,2.938,0,0,0,.369-.034h.039c.11-.016.22-.034.33-.058l.084-.018c.1-.024.2-.047.307-.079l.055-.016c.123-.037.246-.076.367-.123a9.617,9.617,0,0,0,1.211-.6c.262-.144.524-.291.786-.424a6.118,6.118,0,0,1,.6-.262,3.373,3.373,0,0,1,1.572-.262,6.156,6.156,0,0,1,.786.16q0,.043,0,.086.32,1.887.631,3.773a7.684,7.684,0,0,1,1.085-.652,2.414,2.414,0,0,0-.139.59,2.344,2.344,0,0,0,0,.469,1.017,1.017,0,0,1-.073.721c-.092.121-.262.189-.312.325a1.111,1.111,0,0,0-.026.427.681.681,0,0,1-.624.634,1,1,0,0,1-.4,1.169,1.386,1.386,0,0,0-.3.2.907.907,0,0,0-.176.4,7,7,0,0,1-2.052,3.372,6.6,6.6,0,0,0-1.014.991,4.511,4.511,0,0,0-.459.9q-1.048,2.563-2.128,5.128a11.382,11.382,0,0,0-.912,2.958c-.314,2.825-2.83,5.22-2.358,8.024a3.93,3.93,0,0,0,.818,1.915,4.822,4.822,0,0,0,2.1,1.287,38.169,38.169,0,0,0,6.273,1.648l3.333.684a14.566,14.566,0,0,0,1.986.314,13,13,0,0,1,2.413.183,7.489,7.489,0,0,0,1.449.385c.43.024.959-.068,1.213.283s.058.815.3,1.127c.388.5,1.334,0,1.756.466a2.171,2.171,0,0,1,.262.579,1.047,1.047,0,0,0,.262.33,2.209,2.209,0,0,1,.031.448,7.721,7.721,0,0,1-.377,1.787q-.472,1.6-.941,3.194a7.064,7.064,0,0,0-.262,1.153,2.758,2.758,0,0,0,0,.571,1.569,1.569,0,0,0,.941,1.365,1.724,1.724,0,0,0,1.274-.157,5.626,5.626,0,0,0,1.048-.708,7.155,7.155,0,0,0,1.512-1.557c1.31-1.96.886-4.612,1.805-6.779.611-1.446,1.8-2.62,2.2-4.145a1.659,1.659,0,0,0,.031-.9,1.857,1.857,0,0,0-1.245-1.012h-.024a10.752,10.752,0,0,0-1.31-.375c-.11-.024-.223-.042-.335-.06a2.057,2.057,0,0,1-.579-.755,1.752,1.752,0,0,0-.123-.453.471.471,0,0,0-.377-.21c-.262-.026-.613.068-.9.047-.584-.042-.972-.616-1.5-.88a3.055,3.055,0,0,0-1.651-.16,1.527,1.527,0,0,1-.6-.037,2.247,2.247,0,0,1-.629-.432,2.636,2.636,0,0,0-2.309-.464,2.517,2.517,0,0,1-.786.178c-.511-.029-.873-.485-1.25-.831-1.033-.946-2.5-1.195-3.755-1.816a.857.857,0,0,1-.451-.388c-.144-.356.181-.713.474-.956l2.154-1.79c2.358-1.96,5.306-3.435,6.4-6.31a3.649,3.649,0,0,1,.524-1.077,1.459,1.459,0,0,1,.291-.262,2.2,2.2,0,0,1,1.612-.314,5.441,5.441,0,0,1,1.9.828q1.407.852,2.738,1.834a24.216,24.216,0,0,1,2.5,2.054c1.376,1.31,2.521,2.864,3.8,4.276a12.214,12.214,0,0,0,4.525,3.406,5.824,5.824,0,0,0,5.458-.487c1.763-1.31,2.33-3.653,2.775-5.8.983-.949,1.279-2.392,1.758-3.669.3-.81.686-1.572,1.011-2.379.388-.949.692-1.929,1-2.906a13.976,13.976,0,0,0,.7-3.032c.126-1.632-.312-3.37.147-4.9a18.08,18.08,0,0,0,1.75-.673,8.674,8.674,0,0,1,2.772-.238h.06a1.431,1.431,0,0,0,.922-.218,1.468,1.468,0,0,0,.38-1.116A3.407,3.407,0,0,0,774.45,283.233Zm-37.967-44.7a1.947,1.947,0,0,1-.663.047Z" transform="translate(-529.646 -199.393)" fill="url(#linear-gradient)"/>
    <path id="Path_90" data-name="Path 90" d="M793.991,314.908a2.884,2.884,0,0,1-1.09.579l-1.858.666a6.921,6.921,0,0,1-3.126.595c-.595-.073-3.144-.448-3.53-.912-.587-.718,1.47-1.774,2.172-2.379a2.969,2.969,0,0,0,.44-.388,1.579,1.579,0,0,0,.191-1.171,18.076,18.076,0,0,1-.136-3.084,6.212,6.212,0,0,1,.1-.731c.262-1.205,1.384-.765,2.269-.445a17.745,17.745,0,0,1,3.079,1.334,2.208,2.208,0,0,1,.76.645,3.277,3.277,0,0,1,.17,2.1,1.964,1.964,0,0,0,.307,1.541,3.96,3.96,0,0,1,.5.524A.983.983,0,0,1,793.991,314.908Z" transform="translate(-586.122 -259.19)" fill="#be6f72"/>
    <path id="Path_91" data-name="Path 91" d="M716.105,237.65c.262-1.161.32-2.358.634-3.509a16.423,16.423,0,0,1,.823-2.188l1.156-2.7a1.9,1.9,0,0,1,.545-.825,1.614,1.614,0,0,1,.9-.241,4,4,0,0,1,3.087,1.14,2.646,2.646,0,0,1,.4,3.126c-.734,1.145-2.335,1.376-3.291,2.34a4.581,4.581,0,0,0-1.088,2.319,45.7,45.7,0,0,0-.464,6.732,2.232,2.232,0,0,1-.786,1.86,2.293,2.293,0,0,1-1.174.228l-1.719.029c-.288,0-1.334.181-1.525-.037-.335-.38.43-2.272.569-2.694.309-.935.689-1.847,1.048-2.767A9.2,9.2,0,0,0,716.105,237.65Z" transform="translate(-533.901 -200.818)" fill="#be6f72"/>
    <path id="Path_92" data-name="Path 92" d="M834.084,571.805c-.4,1.515-1.585,2.694-2.2,4.138-.92,2.162-.506,4.806-1.806,6.761a7.144,7.144,0,0,1-1.512,1.559,5.615,5.615,0,0,1-1.048.7,1.724,1.724,0,0,1-1.274.157,1.568,1.568,0,0,1-.941-1.363,2.732,2.732,0,0,1,0-.569,7.032,7.032,0,0,1,.262-1.15q.472-1.591.941-3.186a7.714,7.714,0,0,0,.377-1.782c.034-.66-.385-1.52-.207-2.136.081-.278.385-.524.524-.757a4.382,4.382,0,0,0,.451-1.072,6.666,6.666,0,0,1,.812-2.128,5,5,0,0,1,1.022-.956,2.71,2.71,0,0,1,.975-.548,2.387,2.387,0,0,1,1.048.05,10.3,10.3,0,0,1,1.31.372h.024a1.835,1.835,0,0,1,1.245,1.009A1.647,1.647,0,0,1,834.084,571.805Z" transform="translate(-616.386 -452.65)" fill="#3f3d56"/>
    <path id="Path_93" data-name="Path 93" d="M925.826,442.475a1.452,1.452,0,0,1-.38,1.114,1.431,1.431,0,0,1-.922.217h-.071a8.832,8.832,0,0,0-2.772.238,10.478,10.478,0,0,1-1.994.713,4.866,4.866,0,0,1-2.733-.88,27.18,27.18,0,0,0-2.482-1.179c-.556-.228-1.69-.375-1.957-.983a8.926,8.926,0,0,1-.231-.875,2.917,2.917,0,0,0-.16-.385,2.215,2.215,0,0,1-.293-.867,1.339,1.339,0,0,1,.3-.839,2.513,2.513,0,0,1,1.716-.883,7.6,7.6,0,0,1,1.976.1l6.451.928a15.1,15.1,0,0,1,1.488.262,2.919,2.919,0,0,1,1.279.561A3.312,3.312,0,0,1,925.826,442.475Z" transform="translate(-680.247 -355.535)" fill="#3f3d56"/>
    <path id="Path_94" data-name="Path 94" d="M798.129,450.509c-.786,1.659-.22,3.621-.362,5.456a13.9,13.9,0,0,1-.7,3.024c-.3.975-.608,1.952-1,2.9-.325.786-.71,1.572-1.011,2.374-.479,1.279-.786,2.717-1.758,3.669-.445,2.143-1.011,4.486-2.775,5.786a5.808,5.808,0,0,1-5.458.487,12.213,12.213,0,0,1-4.525-3.406c-1.281-1.412-2.427-2.951-3.8-4.266a23.833,23.833,0,0,0-2.508-2.052q-1.331-.967-2.738-1.819a5.484,5.484,0,0,0-1.9-.825,2.2,2.2,0,0,0-1.612.314,1.464,1.464,0,0,0-.291.262,3.606,3.606,0,0,0-.524,1.074c-1.1,2.867-4.054,4.339-6.412,6.294l-2.154,1.784c-.293.244-.618.6-.474.954a.856.856,0,0,0,.451.388c1.253.618,2.723.867,3.755,1.811.377.346.739.8,1.25.828a2.51,2.51,0,0,0,.786-.176,2.644,2.644,0,0,1,2.309.461,2.247,2.247,0,0,0,.629.432,1.528,1.528,0,0,0,.6.037,3.189,3.189,0,0,1,1.651.16c.5.249.912.836,1.5.878.286.021.626-.073.9-.047a.471.471,0,0,1,.377.21,1.73,1.73,0,0,1,.123.451c.108.369.469.595.7.9a2.483,2.483,0,0,1,.377,1.69,7.211,7.211,0,0,1-2.3,4.827,2.84,2.84,0,0,1-1.412.786,1.31,1.31,0,0,1-1.4-.621,2.155,2.155,0,0,0-.262-.577c-.422-.464-1.368.029-1.756-.466-.241-.309-.068-.8-.3-1.124s-.786-.262-1.213-.28a7.685,7.685,0,0,1-1.449-.385,13.017,13.017,0,0,0-2.413-.183,14.571,14.571,0,0,1-1.986-.314l-3.333-.681a39.507,39.507,0,0,1-6.273-1.643,5.047,5.047,0,0,1-2.1-1.284,3.932,3.932,0,0,1-.818-1.913c-.474-2.8,2.041-5.186,2.358-8a11.221,11.221,0,0,1,.912-2.951q1.066-2.558,2.128-5.118a4.555,4.555,0,0,1,.445-.907,6.575,6.575,0,0,1,1.014-.988,6.978,6.978,0,0,0,2.052-3.365.906.906,0,0,1,.176-.4,1.474,1.474,0,0,1,.3-.2,1,1,0,0,0,.4-1.166.681.681,0,0,0,.624-.634,1.094,1.094,0,0,1,.026-.424c.063-.136.22-.2.312-.325a1.013,1.013,0,0,0,.073-.718,2.335,2.335,0,0,1,0-.469,2.408,2.408,0,0,1,.7-1.465c.626-.616,1.517-.456,2.382-.6a13.644,13.644,0,0,0,2.516-.8,24.713,24.713,0,0,1,7.1-1.643,15.51,15.51,0,0,1,7.175,1.143,4.077,4.077,0,0,1,.925.524,1.754,1.754,0,0,1,.485.579,5.393,5.393,0,0,0,.356.8c.28.383.81.506,1.116.867s.333.972.587,1.42c.364.639,1.208.935,1.46,1.63.079.22.089.461.147.689a3.942,3.942,0,0,0,.941,1.473,11.323,11.323,0,0,1,2.536,5.765,4.385,4.385,0,0,1,2.1-3.239c.3-.2.65-.414.71-.77.076-.451-.362-.852-.333-1.31a1.284,1.284,0,0,1,.262-.613,19.376,19.376,0,0,1,1.64-2.062c.322-.354.684-.786.55-1.253-.1-.348-.458-.553-.655-.857a1.09,1.09,0,0,1,.026-1.205c.183-.249.474-.43.563-.726.1-.349-.126-.726-.055-1.085a1.341,1.341,0,0,1,.54-.7,3.3,3.3,0,0,1,3.367-.833c1.226.17,2.6.432,3.294,1.46A2.486,2.486,0,0,1,798.129,450.509Z" transform="translate(-558.22 -361.893)" fill="#65617d"/>
    <path id="Path_95" data-name="Path 95" d="M925.8,442.475a1.452,1.452,0,0,1-.38,1.114,1.431,1.431,0,0,1-.922.217h-.071c.107-.545.77-.857.886-1.41a1.247,1.247,0,0,0-.288-.951,4.724,4.724,0,0,0-2.358-1.483,15.623,15.623,0,0,0-7.877-.59,7.932,7.932,0,0,0-2.07.637,6.741,6.741,0,0,0-.629.445,2.215,2.215,0,0,1-.293-.867,1.339,1.339,0,0,1,.3-.839,2.513,2.513,0,0,1,1.716-.883,7.6,7.6,0,0,1,1.976.1l6.452.928a15.1,15.1,0,0,1,1.488.262,2.92,2.92,0,0,1,1.279.561A3.29,3.29,0,0,1,925.8,442.475Z" transform="translate(-680.224 -355.535)" opacity="0.1"/>
    <path id="Path_96" data-name="Path 96" d="M834.084,573.117c-.4,1.515-1.585,2.694-2.2,4.138-.92,2.162-.506,4.806-1.806,6.761a7.143,7.143,0,0,1-1.512,1.559,5.616,5.616,0,0,1-1.048.7,1.724,1.724,0,0,1-1.274.157,1.568,1.568,0,0,1-.941-1.363,2.732,2.732,0,0,1,0-.569l.016.042c.228.55.6,1.127,1.187,1.224a1.607,1.607,0,0,0,1.211-.427,7.487,7.487,0,0,0,1.847-2.728,11.347,11.347,0,0,0,.886-2.261c.1-.445.155-.9.262-1.347.5-2.164,2.193-3.931,2.568-6.124a1.494,1.494,0,0,0,.021-.458,2.308,2.308,0,0,0-.225-.571,2.831,2.831,0,0,1-.2-.634,1.834,1.834,0,0,1,1.245,1.009A1.648,1.648,0,0,1,834.084,573.117Z" transform="translate(-616.386 -453.962)" opacity="0.1"/>
    <path id="Path_97" data-name="Path 97" d="M797.231,520.987a3.8,3.8,0,0,1-1.182,1.614,5.765,5.765,0,0,1-2.544,1.1,2.532,2.532,0,0,1-1.31-.016c-.582-.2-1-.747-1.6-.9a10.915,10.915,0,0,0-1.31-.076,4.649,4.649,0,0,1-2-1.169c-1.91-1.436-4.418-1.9-6.328-3.336a.588.588,0,0,1-.2-.212.631.631,0,0,1-.039-.3,6.027,6.027,0,0,1,.574-2.518,8.785,8.785,0,0,1,1.08-1.538,46.671,46.671,0,0,1,5.479-5.977,8.3,8.3,0,0,1,2.882-1.769,4.32,4.32,0,0,1,2.526-.047,1.461,1.461,0,0,0-.291.262,3.6,3.6,0,0,0-.524,1.074c-1.1,2.869-4.056,4.342-6.415,6.3l-2.154,1.784c-.294.244-.618.6-.474.954a.857.857,0,0,0,.451.388c1.253.618,2.723.867,3.755,1.811.377.346.739.8,1.25.828a2.51,2.51,0,0,0,.786-.176,2.644,2.644,0,0,1,2.309.461,2.245,2.245,0,0,0,.629.432,1.529,1.529,0,0,0,.6.037,3.19,3.19,0,0,1,1.651.16c.5.249.912.836,1.5.878C796.618,521.055,796.958,520.955,797.231,520.987Z" transform="translate(-583.49 -405.589)" opacity="0.1"/>
    <path id="Path_98" data-name="Path 98" d="M744.947,401.412a2.782,2.782,0,0,0-1.232,1.237c-.168.453-.089.972-.291,1.412s-.655.747-.755,1.218c-.071.343.068.7,0,1.048a4.525,4.525,0,0,0-.144.545c-.026.39.309.707.637.925a5.319,5.319,0,0,0,4.761.524,21.494,21.494,0,0,0,2-1.025,3.96,3.96,0,0,1,2.157-.524c.432.047.846.2,1.279.262a1.342,1.342,0,0,0,1.2-.356,1.493,1.493,0,0,0,.262-.621,9.281,9.281,0,0,0-.147-4.41c-.346-1.446-.87-2.838-1.239-4.277a19.617,19.617,0,0,0-.9-3.168,4.157,4.157,0,0,0-2.2-2.332.411.411,0,0,0-.262-.034.446.446,0,0,0-.17.126,8.058,8.058,0,0,0-1.8,3.024c-.411,1.255-.524,2.586-.9,3.847a3.938,3.938,0,0,1-.786,1.627A8.98,8.98,0,0,1,744.947,401.412Z" transform="translate(-555.306 -321.579)" fill="#3f3d56"/>
    <path id="Path_99" data-name="Path 99" d="M754.843,406a1.528,1.528,0,0,1-.275.621,1.329,1.329,0,0,1-1.2.354c-.43-.052-.844-.212-1.276-.262a3.952,3.952,0,0,0-2.157.524c-.671.335-1.31.752-2,1.022a5.291,5.291,0,0,1-3.179.181,5.129,5.129,0,0,1-1.572-.692,1.127,1.127,0,0,1-.637-.925,4.475,4.475,0,0,1,.144-.542c.068-.343-.068-.7,0-1.048.1-.472.555-.786.755-1.221s.123-.956.288-1.41a2.793,2.793,0,0,1,1.234-1.239,9.419,9.419,0,0,0,1.488-.959,1.479,1.479,0,0,0,.139-.194,4.718,4.718,0,0,0,.624-1.444c.385-1.263.49-2.592.9-3.849a8.074,8.074,0,0,1,1.8-3.021.4.4,0,0,1,.168-.126.419.419,0,0,1,.262.031,4.187,4.187,0,0,1,2.2,2.335,20.626,20.626,0,0,1,.9,3.165c.367,1.439.894,2.835,1.239,4.279A9.323,9.323,0,0,1,754.843,406Z" transform="translate(-555.32 -321.526)" opacity="0.1"/>
    <path id="Path_100" data-name="Path 100" d="M801.243,311.726a5.241,5.241,0,0,1-6.383-2.882,6.215,6.215,0,0,1,.1-.731c.262-1.205,1.384-.765,2.269-.445A17.746,17.746,0,0,1,800.313,309a2.209,2.209,0,0,1,.76.645A3.228,3.228,0,0,1,801.243,311.726Z" transform="translate(-593.927 -259.213)" opacity="0.1"/>
    <circle id="Ellipse_5" data-name="Ellipse 5" cx="5.241" cy="5.241" r="5.241" transform="translate(200.493 42.016)" fill="#be6f72"/>
    <path id="Path_101" data-name="Path 101" d="M808.819,448.333c0,.435-.59.574-1.027.55a33.179,33.179,0,0,0-4.667-.393c-1.968.178-3.776,1.266-5.749,1.365a17.43,17.43,0,0,0-2.282.066c-.97.181-1.834.77-2.822.854-.857.073-1.7-.249-2.56-.215a4.114,4.114,0,0,0-1.711.487,2.408,2.408,0,0,1,.7-1.465c.626-.616,1.517-.456,2.382-.6a13.646,13.646,0,0,0,2.516-.8,24.713,24.713,0,0,1,7.1-1.643,15.509,15.509,0,0,1,7.172,1.135,4.077,4.077,0,0,1,.925.524.408.408,0,0,1,.018.141Z" transform="translate(-588.865 -361.912)" opacity="0.1"/>
    <path id="Path_102" data-name="Path 102" d="M779.932,333.533l-2.122-.786-.9-.33a4.334,4.334,0,0,0-1.142-.3,2.909,2.909,0,0,0-2.542,1.478,7.985,7.985,0,0,0-.93,2.927q-.362,2.081-.613,4.177a27.274,27.274,0,0,0-.275,3.81,45.142,45.142,0,0,0,1.5,9.6,33.786,33.786,0,0,1,.836,4.258c.063.592.092,1.187.155,1.782.068.668.178,1.329.288,1.992l.631,3.766a4.978,4.978,0,0,1,2.646-1.077c.857-.031,1.706.288,2.56.215a29.241,29.241,0,0,0,2.822-.852,17.008,17.008,0,0,1,2.285-.066c1.971-.1,3.781-1.19,5.747-1.365a31.563,31.563,0,0,1,4.669.39c.435.026,1.025-.113,1.025-.55,0-.3-.3-.506-.569-.658a28.045,28.045,0,0,1-3.551-2.534,11.985,11.985,0,0,1-2.791-2.762c-1.711-2.66-1.124-6.258-2.584-9.064-1.187-2.28,0-5.267,0-7.838a11.923,11.923,0,0,0-1-5.867l-1.019-2.581a.424.424,0,0,0-.12-.2.4.4,0,0,0-.233-.071,2.458,2.458,0,0,0-1.693.542c-.479.39-.786.951-1.258,1.357A1.914,1.914,0,0,1,779.932,333.533Z" transform="translate(-576.622 -276.707)" fill="#e3e8f4"/>
    <path id="Path_103" data-name="Path 103" d="M809.621,327.411a4.65,4.65,0,0,1,.828-2.026,1.592,1.592,0,0,1,1.973-.456c.7.456.731,1.509,1.331,2.1a3.23,3.23,0,0,0,2.023.608,13.717,13.717,0,0,1,3.739.88,1.528,1.528,0,0,1,.621.372c.328.372.262.943.424,1.407.223.6.839.977,1.077,1.572a3.136,3.136,0,0,1-.22,2.078c-.4,1.218-.645,2.484-1.03,3.708A8.256,8.256,0,0,1,818.554,341c-.4.409-.99.786-1.515.542l-.2,1.454a2.471,2.471,0,0,0,0,.93.833.833,0,0,0,.608.645c.039.225.278.333.472.456a1.31,1.31,0,0,1,.333,1.834c-.165.223-.409.4-.487.663a.942.942,0,0,0,.5,1c.341.21.742.307,1.087.508a3.381,3.381,0,0,1,1.35,2.02,3.745,3.745,0,0,0,.786,1.68c.173.165.38.291.545.464a1.988,1.988,0,0,1,.469,1.2,2.386,2.386,0,0,1-.341,1.572,4.75,4.75,0,0,1-2.358,1.31,19.875,19.875,0,0,0-3.763,2.463,4.015,4.015,0,0,1-1.716.807,15.036,15.036,0,0,1-2.539-.3,6.308,6.308,0,0,0-1.515.2l-1.572.341c.084-1.218-.587-2.44-.962-3.6a17.893,17.893,0,0,1-.671-6.813,53.367,53.367,0,0,1,1.1-6.8,43.35,43.35,0,0,1,.786-4.743,31.249,31.249,0,0,0,1.371-4.413C810.716,331.952,809.06,329.853,809.621,327.411Z" transform="translate(-602.886 -272.073)" fill="#3f3d56"/>
    <path id="Path_104" data-name="Path 104" d="M851.266,352.362a2.881,2.881,0,0,1,.3.852,3.074,3.074,0,0,0,.663,1.247,4.292,4.292,0,0,1,.7.786,5.881,5.881,0,0,1,.262,1.509,12.123,12.123,0,0,1,.566,1.572,2.88,2.88,0,0,0,.045.477c.17.634,1.1.786,1.31,1.42.139.411-.1.859-.055,1.292a1.132,1.132,0,0,1,.024.409.83.83,0,0,1-.3.383,6.027,6.027,0,0,0-1.724,3.069,17.471,17.471,0,0,0-.4,3.545l-1.025-1.355a1.555,1.555,0,0,0-.409-.419c-.131-.079-.283-.118-.417-.2a1.9,1.9,0,0,1-.689-1.106,10.215,10.215,0,0,0-1.834-3.176,3.467,3.467,0,0,1-.993-1.619,2.983,2.983,0,0,1,.047-.875,14.921,14.921,0,0,1,1.378-5c.39-.713.9-1.357,1.271-2.081C850.241,352.619,850.595,351.372,851.266,352.362Z" transform="translate(-632.611 -292.179)" fill="#3f3d56"/>
    <path id="Path_105" data-name="Path 105" d="M722.443,307.836a1.2,1.2,0,0,1-.162.629.828.828,0,0,1-.828.262,2.394,2.394,0,0,1-.828-.388l-2.191-1.386a12.116,12.116,0,0,1-1.177-.807,10.5,10.5,0,0,1-1.554-1.627c-1.274-1.572-2.4-3.278-3.818-4.717-.385-.393-.786-.77-1.158-1.182a17.25,17.25,0,0,1-1.4-1.882,3.2,3.2,0,0,1-.763-2c.042-.409.238-.786.3-1.192a.743.743,0,0,0-.631-1.035,1.07,1.07,0,0,1-.228-.05c-.364-.152-.309-.715-.047-1.011s.65-.461.888-.786a4.728,4.728,0,0,1,.372-.553,1.418,1.418,0,0,1,.611-.307,9.45,9.45,0,0,1,4.651-.176c.262.058.561.162.639.417a.768.768,0,0,1,0,.377,8.434,8.434,0,0,0-.2,1.572,2.776,2.776,0,0,0,.018.33,5.927,5.927,0,0,0,1.546,2.919c.833,1.032,1.68,2.057,2.529,3.079a12.1,12.1,0,0,0,1.533,1.638,8.743,8.743,0,0,1,1.612,1.344,2.941,2.941,0,0,1,.262,1.609A35.7,35.7,0,0,1,722.443,307.836Z" transform="translate(-529.639 -246.005)" fill="#3f3d56"/>
    <path id="Path_106" data-name="Path 106" d="M878.553,347.08a5.507,5.507,0,0,0,.7-.825,5.447,5.447,0,0,0,.524-1.171l1.52-4.311c.241-.681.482-1.365.786-2.028.314-.715.686-1.4,1.03-2.1a27.96,27.96,0,0,0,2.036-5.7,2.113,2.113,0,0,0,.081-.836,2.2,2.2,0,0,0-.744-1.129,5.445,5.445,0,0,0-1.116-.922,1.834,1.834,0,0,0-1.4-.225,2.021,2.021,0,0,0-1.247,1.572,16.429,16.429,0,0,0-.162,2.1c-.094,1.006-.44,1.978-.524,2.987-.045.584,0,1.174-.071,1.756a6.411,6.411,0,0,1-.786,2.167,14.069,14.069,0,0,1-3.388,4.166,5.449,5.449,0,0,0-1.017.977,3.19,3.19,0,0,0-.49,1.221,2.812,2.812,0,0,0,.212,1.984,2.912,2.912,0,0,0,2.031,1.211C877.583,348.193,877.827,347.832,878.553,347.08Z" transform="translate(-652.47 -274.316)" fill="#be6f72"/>
    <path id="Path_107" data-name="Path 107" d="M795.072,269.8a2.445,2.445,0,0,1,2.374-1.287,2.62,2.62,0,0,1,2.06,1.85,4.781,4.781,0,0,0,.388,1.158c.325.506.928.652,1.378,1.019a2.759,2.759,0,0,1,.88,1.95,5.9,5.9,0,0,1-.349,2.2,7.011,7.011,0,0,0-.262.922c-.052.3-.058.613-.1.917a2.988,2.988,0,0,1-1.2,1.984.524.524,0,0,1-.325.118c-.2-.024-.33-.262-.406-.477-.417-1.2-.317-2.673-1.085-3.632a3.971,3.971,0,0,0-1.242-.925,1.6,1.6,0,0,0-.634-.238,1.669,1.669,0,0,0-.917.335,5.71,5.71,0,0,1-1.813.8,2.227,2.227,0,0,1-1.874-.4c-.362-.3-.626-.747-1.027-.98a7.916,7.916,0,0,0-1.216-.38,1.8,1.8,0,0,1-.728-2.746c.262-.314.65-.493.883-.841a5.308,5.308,0,0,0,.419-1.609,2.214,2.214,0,0,1,1.334-1.522,1.874,1.874,0,0,1,1.866.39c.262.236.472.54.728.786a2.1,2.1,0,0,0,1.939.524" transform="translate(-589.307 -230.139)" fill="#3f3d56"/>
    <path id="Path_108" data-name="Path 108" d="M828.781,419.638a1.017,1.017,0,0,0-.278,1.111,24.533,24.533,0,0,0,3.047-.438c.713-.1,1.963-.052,2.442-.7.854-1.156-1.792-.9-2.277-.857A4.994,4.994,0,0,0,828.781,419.638Z" transform="translate(-618.708 -341.406)" opacity="0.1"/>
    <path id="Path_109" data-name="Path 109" d="M715.163,290.434a8.439,8.439,0,0,0-.2,1.572,4.579,4.579,0,0,1-2.358-.364l-2.167-.739a.616.616,0,0,0-.828.155,18.341,18.341,0,0,1-1.31,1.454,1.072,1.072,0,0,1-.228-.05c-.364-.152-.309-.715-.047-1.011s.65-.461.888-.786a4.741,4.741,0,0,1,.372-.553,1.417,1.417,0,0,1,.611-.307,9.449,9.449,0,0,1,4.651-.176c.262.058.561.162.639.417A.768.768,0,0,1,715.163,290.434Z" transform="translate(-529.69 -246.005)" fill="#3f3d56"/>
    <path id="Path_110" data-name="Path 110" d="M715.163,290.434a8.439,8.439,0,0,0-.2,1.572,4.579,4.579,0,0,1-2.358-.364l-2.167-.739a.616.616,0,0,0-.828.155,18.341,18.341,0,0,1-1.31,1.454,1.072,1.072,0,0,1-.228-.05c-.364-.152-.309-.715-.047-1.011s.65-.461.888-.786a4.741,4.741,0,0,1,.372-.553,1.417,1.417,0,0,1,.611-.307,9.449,9.449,0,0,1,4.651-.176c.262.058.561.162.639.417A.768.768,0,0,1,715.163,290.434Z" transform="translate(-529.69 -246.005)" opacity="0.1"/>
    <path id="Path_111" data-name="Path 111" d="M796.879,480.251a1.308,1.308,0,0,1,.915.687l-3.035-.77-1.572-.4c-.278-.071-1.274-.152-1.457-.369-.262-.32.668-.1.836-.076.508.076,1.017.155,1.522.246C795.042,479.737,795.959,480.017,796.879,480.251Z" transform="translate(-591.583 -386.073)" opacity="0.1"/>
    <path id="Path_112" data-name="Path 112" d="M798.161,487.438a5.674,5.674,0,0,0-1.336-.231c-.472-.113-.935-.262-1.4-.406-.941-.307-1.874-.655-2.841-.88-.178-.039-.786-.05-.757-.275s.608-.3.752-.314a7.428,7.428,0,0,1,2.723.624A12,12,0,0,1,798.161,487.438Z" transform="translate(-591.688 -390.575)" opacity="0.1"/>
    <path id="Path_113" data-name="Path 113" d="M798.019,469.446a20.127,20.127,0,0,0-2.825-.975,1.147,1.147,0,0,1-.721-.22.849.849,0,0,1-.233-.419,4.881,4.881,0,0,1,2.036.511,6.406,6.406,0,0,1,.954.508C797.45,468.985,797.78,469.37,798.019,469.446Z" transform="translate(-593.47 -377.664)" opacity="0.1"/>
    <path id="Path_114" data-name="Path 114" d="M869.473,384.46a4.583,4.583,0,0,0,3.213,5.065c-.128.621-.77.964-1.224,1.407-.639.621-.969,1.551-1.724,2.023a3.846,3.846,0,0,1-2.882.1.351.351,0,0,1-.225-.118.321.321,0,0,1-.042-.1,6.744,6.744,0,0,1-.2-3.564,11.637,11.637,0,0,1,1.394-2.71C868.286,385.686,868.333,384.748,869.473,384.46Z" transform="translate(-646.592 -316.141)" fill="#3f3d56"/>
    <path id="Path_115" data-name="Path 115" d="M754.81,327.1a6.813,6.813,0,0,0-2.882.878,3.223,3.223,0,0,1-1.86.7c-.4-.045-.786-.262-1.171-.157a2.3,2.3,0,0,0-.6.356.679.679,0,0,1-.66.1l-.262,3.627a13.3,13.3,0,0,0,.134,4.13,11.573,11.573,0,0,1,.587,2.007c.042.7-.021,1.412.029,2.117.047.652.191,1.294.228,1.947a12.391,12.391,0,0,1-.524,3.65,21.719,21.719,0,0,1-1.572,5.17,3.051,3.051,0,0,0-.524,1.4.715.715,0,0,0,.016.183c-.262.144-.506.28-.729.422a2.793,2.793,0,0,0-1.234,1.239c-.165.453-.089.972-.288,1.41s-.655.749-.755,1.221c-.071.343.065.7,0,1.048a4.462,4.462,0,0,0-.144.542,1.138,1.138,0,0,0,.637.925,5.129,5.129,0,0,0,1.572.692l1.564-6.21h0a50.071,50.071,0,0,0,3.545-8.246,17.744,17.744,0,0,1,1.025-2.715,12.772,12.772,0,0,0,.786-1.541,11.616,11.616,0,0,0,.377-2.073,14.5,14.5,0,0,1,.616-2.392,10.263,10.263,0,0,0,.668-2.563c.086-1.263-.372-2.6.115-3.765a5.011,5.011,0,0,1,.8-1.2c.676-.828,1.292-1.7,1.968-2.523A1.818,1.818,0,0,0,754.81,327.1Z" transform="translate(-555.357 -273.802)" fill="#3f3d56"/>
    <g id="Group_316" data-name="Group 316" transform="translate(199.3 38.8)" opacity="0.1">
      <path id="Path_116" data-name="Path 116" d="M816.364,271.81l-.327.024-.037.026A1.928,1.928,0,0,0,816.364,271.81Z" transform="translate(-808.828 -271.81)"/>
      <path id="Path_117" data-name="Path 117" d="M802.162,287.8a7.05,7.05,0,0,1-.335,1.53,7.007,7.007,0,0,0-.262.922c-.052.3-.058.613-.1.917a2.987,2.987,0,0,1-1.2,1.984.524.524,0,0,1-.325.118c-.2-.024-.33-.262-.406-.477-.417-1.2-.317-2.673-1.085-3.632a3.969,3.969,0,0,0-1.242-.925,1.6,1.6,0,0,0-.634-.238,1.669,1.669,0,0,0-.917.335,5.709,5.709,0,0,1-1.813.8,2.227,2.227,0,0,1-1.874-.4c-.362-.3-.626-.747-1.027-.98a7.91,7.91,0,0,0-1.216-.38A1.789,1.789,0,0,1,788.7,286.2a.738.738,0,0,1-.021-.1,1.834,1.834,0,0,0,.021.886,1.789,1.789,0,0,0,1.022,1.169,8.838,8.838,0,0,1,1.216.38,9.91,9.91,0,0,1,1.027.98,2.227,2.227,0,0,0,1.874.4,5.709,5.709,0,0,0,1.813-.8,1.67,1.67,0,0,1,.917-.335,1.6,1.6,0,0,1,.634.238,3.969,3.969,0,0,1,1.224.933c.768.959.668,2.429,1.085,3.632.076.217.2.453.406.477a.524.524,0,0,0,.343-.126,2.987,2.987,0,0,0,1.205-1.992c.047-.3.052-.613.1-.917a7.018,7.018,0,0,1,.262-.922,5.9,5.9,0,0,0,.349-2.2C802.173,287.869,802.168,287.832,802.162,287.8Z" transform="translate(-788.631 -282.355)"/>
    </g>
    <path id="Path_118" data-name="Path 118" d="M674.807,372.81l-.178,2.392a49.751,49.751,0,0,1-5.228,17.1,48.528,48.528,0,0,1-26.021,23.529q-1.69.668-3.509,1.247l-1.352-4.245a49.641,49.641,0,0,0,9.753-4.266,43.166,43.166,0,0,0,17.074-18.123,48.682,48.682,0,0,0,4.481-13.181H653.4V372.81Z" transform="translate(-478.555 -307.544)" fill="#6c63ff"/>
    <path id="Path_119" data-name="Path 119" d="M645.1,415.849a48.518,48.518,0,0,0,26.018-23.526,49.65,49.65,0,0,0,5.228-17.1l.178-2.392h1.834l-.178,2.392a49.682,49.682,0,0,1-5.228,17.1,48.528,48.528,0,0,1-26.018,23.526q-1.69.668-3.511,1.25l-.178-.558Q644.189,416.2,645.1,415.849Z" transform="translate(-482.038 -307.558)" fill="#fff" opacity="0.1"/>
    <path id="Path_120" data-name="Path 120" d="M437.807,412.834l-1.352,4.245q-1.821-.582-3.511-1.25A48.518,48.518,0,0,1,406.926,392.3a49.651,49.651,0,0,1-5.228-17.1l-.178-2.392h21.4v4.455H406.486a48.708,48.708,0,0,0,4.494,13.181,43.138,43.138,0,0,0,17.072,18.12A49.525,49.525,0,0,0,437.807,412.834Z" transform="translate(-303.658 -307.543)" fill="#6c63ff"/>
    <path id="Path_121" data-name="Path 121" d="M434.518,415.849A48.518,48.518,0,0,1,408.5,392.323a49.651,49.651,0,0,1-5.228-17.1l-.178-2.392H401.26l.178,2.392a49.683,49.683,0,0,0,5.228,17.1,48.528,48.528,0,0,0,26.018,23.526q1.69.668,3.511,1.25l.178-.558Q435.427,416.2,434.518,415.849Z" transform="translate(-303.466 -307.558)" fill="#fff" opacity="0.1"/>
    <path id="Path_122" data-name="Path 122" d="M544.359,595.071v24.021H494.92V595.071l1.572-2.1c16.021-5.686,19.268-20.515,19.915-26.382a24.11,24.11,0,0,0,.165-2.442h6.113a24.109,24.109,0,0,0,.165,2.442c.658,5.867,3.9,20.7,19.915,26.382Z" transform="translate(-372.583 -448.745)" fill="#6c63ff"/>
    <rect id="Rectangle_174" data-name="Rectangle 174" width="49.439" height="3.013" transform="translate(122.337 146.326)" opacity="0.1"/>
    <path id="Path_123" data-name="Path 123" d="M499.113,592.974c16.021-5.686,19.268-20.515,19.915-26.382a24.074,24.074,0,0,0,.165-2.442h-2.62a24.11,24.11,0,0,1-.165,2.442c-.658,5.867-3.9,20.7-19.915,26.382l-1.572,2.1v24.021h2.62V595.071Z" transform="translate(-372.583 -448.745)" fill="#fff" opacity="0.1"/>
    <path id="Path_124" data-name="Path 124" d="M466.26,372.81h4.434v4.455h-4.041Q466.415,375.064,466.26,372.81Z" transform="translate(-351.434 -307.544)" opacity="0.1"/>
    <path id="Path_125" data-name="Path 125" d="M512.526,513.529l-1.352,4.245q-1.821-.582-3.511-1.25a46.939,46.939,0,0,1-4.892-7.264A49.521,49.521,0,0,0,512.526,513.529Z" transform="translate(-378.376 -408.238)" opacity="0.1"/>
    <path id="Path_126" data-name="Path 126" d="M638.51,513.536a49.639,49.639,0,0,0,9.753-4.266,47.143,47.143,0,0,1-4.892,7.266q-1.69.668-3.509,1.247Z" transform="translate(-478.547 -408.246)" opacity="0.1"/>
    <path id="Path_127" data-name="Path 127" d="M699.761,372.81q-.154,2.254-.393,4.455H695.33V372.81Z" transform="translate(-520.478 -307.544)" opacity="0.1"/>
    <path id="Path_128" data-name="Path 128" d="M583.4,566.592a16.938,16.938,0,0,1-6.443,0,24.128,24.128,0,0,0,.165-2.442h6.113A24.164,24.164,0,0,0,583.4,566.592Z" transform="translate(-433.126 -448.745)" opacity="0.1"/>
    <path id="Path_129" data-name="Path 129" d="M468.26,344.65c.113,33.033,14.263,59.745,31.707,59.745s31.591-26.712,31.707-59.745Z" transform="translate(-352.909 -286.763)" fill="#6c63ff"/>
    <path id="Path_130" data-name="Path 130" d="M473.894,344.65H468.26c.113,33.033,14.263,59.745,31.707,59.745a17.125,17.125,0,0,0,2.817-.238C486.658,401.463,474,375.885,473.894,344.65Z" transform="translate(-352.909 -286.763)" fill="#fff" opacity="0.1"/>
    <rect id="Rectangle_175" data-name="Rectangle 175" width="33.628" height="8.647" transform="translate(130.242 155.521)" fill="#3f3d56"/>
    <path id="Path_131" data-name="Path 131" d="M498.662,594.679h32.055V593.5H497.09v8.647h1.572Z" transform="translate(-366.848 -437.979)" fill="#fff" opacity="0.1"/>
    <path id="Path_132" data-name="Path 132" d="M236.556,344.679c-.605-.2-4.169-3.021-4.439-4.3S234,327.217,234,327.217a4.847,4.847,0,0,1-.524-.039v-.191l.443-15.618s1.816-10.482-1.614-9.871-1.279,9.871-1.279,9.871-.39,4.7-.666,6.111c-.262,1.36-1.462,6.9-.645,8.621a1.876,1.876,0,0,0,.1.178h0s.136,5.909-1.344,6.716c-1.412.768-2,4.633-2.049,4.979l-.076-.031h0a4.106,4.106,0,0,1-1.093-1c-.031-.039-.055-.081-.084-.123a5.771,5.771,0,0,0-1.777-9.012,3.721,3.721,0,0,0-.349-1.446c-.681-1.457-4.455-3.362-7.135-3.407-1.237-.037-2.251.314-2.62,1.281a7.394,7.394,0,0,0-.21,1.557,3.958,3.958,0,0,1-1.7,2.521,10.629,10.629,0,0,0-1.129-1.087,24.676,24.676,0,0,1-2.62-2.882s-5.448-5.642-5.851-7.188-5.846-10.83-7.057-9.213,4.169,8.663,4.169,8.663a16.388,16.388,0,0,0,1.808,3.425c.786.865,6.813,9.617,6.813,9.617l.288.6a5.236,5.236,0,0,0-2.848,2.856c-.6,1.96.715,3.931,1.627,5.765,1.777,3.579,2.031,8.144-.262,11.414-2.054,2.888-5.618,4.261-8.954,5.461a8.812,8.812,0,0,0,5.66,1.879c-.77,2.233-3.5,2.972-5.828,3.386a8.387,8.387,0,0,0,4.646,1.86,13.918,13.918,0,0,0,2.487.2h.2l.2-.016a7.106,7.106,0,0,0,.846-.107,4.447,4.447,0,0,0,3.006-1.976c.524-.915.708-2.162,1.659-2.62a2.12,2.12,0,0,1,.786-.186h.511l3.965.039h.506a3.277,3.277,0,0,0,2.882-1.145,3.176,3.176,0,0,0,.359-1.454c.084-1.255,0-2.547.034-3.813.338,2.3.692,5.893-.149,7.219a12.316,12.316,0,0,1-2.458,2.665,4.715,4.715,0,0,0-.65.666c-.128.092-.2.142-.2.142l-.081.244a4.613,4.613,0,0,0-.639,1.483,1.03,1.03,0,0,0-.05.422c.092.186-.655.954-.438,1.276a11.557,11.557,0,0,0-2.219,5.5L209,376.577c-1.75,4.6-4.371,5.07-4.371,5.07s-6.155-4.13-6.323-4.332a23.779,23.779,0,0,0-2.521-1.211A2.668,2.668,0,0,0,194.574,375c-.807-.335-.875-1.572-.875-1.572-.1-2.922-1.816-3.144-1.816-3.144a5.576,5.576,0,0,0-3.252.579l-.246.018c-1.19.1-2.62.2-4.193.309-4.373.288-5.414,3.121-5.414,3.121a.872.872,0,0,0,.168,1.26c.7.655,5.217,0,5.409-.016a2.929,2.929,0,0,1-1.027-.071c.71-.026,1.688-.052,2.521-.052h.2a10.9,10.9,0,0,0-.076,1.331c0,.839,2.319,1.376,2.319,1.376l7.062,6.289a27.973,27.973,0,0,1,7.264,4.837c2.825,2.854,5.322.39,5.322.39,2.99-.739,11.593-11.139,11.6-11.15h0c0,.3.181,10.419.524,12.449h0a1.35,1.35,0,0,0,.076.3c.4.873-.136,3.257-.369,4.263a11.846,11.846,0,0,0-.17,2.552s-3.226,12.316-2.958,13.4-1.748,6.111-1.748,6.111v4.193l.351-.018a2.262,2.262,0,0,0-.126.21l-.024.045a14.909,14.909,0,0,0,3.6.335c1.446-.134,3.931,1.114,3.931,1.114a10.944,10.944,0,0,0,3.43.566c2.589.168,2.589-1.142,2.589-1.142-.3-1.785-4.387-2.382-4.512-2.4-.33-.207-.639-.432-.894-.626l-.052-.042a1.126,1.126,0,0,0,.045-.121c.438-1.782-1.984-2.555-1.984-2.555V416.7c1.572-.807,1.884-6.347,1.884-6.347s2.358-6.85,2.689-7.992a7.554,7.554,0,0,0,0-2.854l.236-1.478a7.269,7.269,0,0,0,.506-1.208,2.984,2.984,0,0,1,.571-1.41c.369-.438-.4-1.478-.4-1.478l.673-1.745v-1.916l1.572-6.949s1.648-8.094,1.077-10.744a4.558,4.558,0,0,1,.673-4,3.311,3.311,0,0,1-.346.157,10.013,10.013,0,0,0,.406-1.116l3.538.438v.052H235.6s-.4-4.979-.4-6.986,1.36-9.211,1.36-9.211S237.161,344.881,236.556,344.679Zm-15.7-5.812c0,.2-.018.4-.031.611l-.071.107-.131-.11-.16.249-.047.024c-.346-.178-.524-1.2-.773-.977l-.034.029c-.055-.063-.11-.081-.168-.029l-.052.045v-.233a5.9,5.9,0,0,0,1.467.186C220.854,338.8,220.852,338.836,220.852,338.867Zm11.766,23.185h.076l-.126.33C232.583,362.273,232.6,362.165,232.617,362.052ZM219.7,421.475l-.482-.121.262-.044.244.16.029.021Zm4.926-.7c-.16-.084-.322-.181-.48-.28C224.2,420.519,224.407,420.626,224.628,420.77Z" transform="translate(-139.139 -254.899)" fill="url(#linear-gradient-2)"/>
    <path id="Path_133" data-name="Path 133" d="M348.258,390.03l-3.173,8.27h.77l-2.985,2.379,5.388.671Z" transform="translate(-253.039 -287.826)" fill="#f86d70"/>
    <path id="Path_134" data-name="Path 134" d="M348.258,390.03l-3.173,8.27-.8-.215-1.415,2.594,5.388.671Z" transform="translate(-253.039 -287.826)" opacity="0.1"/>
    <path id="Path_135" data-name="Path 135" d="M344.44,367.9h4.976l1.826-15.028h-6.8Z" transform="translate(-254.198 -260.404)" fill="#f86d70"/>
    <path id="Path_136" data-name="Path 136" d="M344.44,367.9h4.976l1.826-15.028h-6.8Z" transform="translate(-254.198 -260.404)" opacity="0.1"/>
    <path id="Path_137" data-name="Path 137" d="M333.923,443.915l1.074-.181,2.468-.419s7.413-1.672,8.943-1.808a9.557,9.557,0,0,0,2.683-.765c.4-.173.655-.3.655-.3l-2.67-4.877-4.143-3.071s-2.62-.558-3.729-2.083a2.455,2.455,0,0,1-.343-2.327c.676-2.1-4.038,2-4.038,2s.045.983,0,2.235c0,.246-.024.5-.042.765a5.169,5.169,0,0,1-.042.524,8.427,8.427,0,0,1-.818,3.291C332.783,438.771,333.923,443.915,333.923,443.915Z" transform="translate(-253.4 -347.89)" fill="#fbbebe"/>
    <path id="Path_138" data-name="Path 138" d="M338.79,432.719h.1c.189,0,.341-.4.524-.419a5.436,5.436,0,0,0,3.758-1.5,2.458,2.458,0,0,1-.343-2.324c.676-2.1-4.038,2-4.038,2S338.845,431.466,338.79,432.719Z" transform="translate(-257.366 -348.184)" opacity="0.1"/>
    <path id="Path_139" data-name="Path 139" d="M316.89,407.487a5.741,5.741,0,0,0,5.744,5.744,4,4,0,0,0,.561-.026,5.744,5.744,0,1,0-6.3-5.718Z" transform="translate(-241.204 -328.896)" fill="#fbbebe"/>
    <path id="Path_140" data-name="Path 140" d="M265.159,386.791a7.066,7.066,0,0,0-.207,1.549c-.28,1.863-2.175,2.979-3.889,3.76s-3.648,1.706-4.193,3.506c-.6,1.947.707,3.9,1.614,5.726,1.766,3.558,2.018,8.1-.262,11.352-2.026,2.882-5.555,4.25-8.878,5.45A8.752,8.752,0,0,0,254.966,420c-.763,2.219-3.475,2.956-5.786,3.365a8.313,8.313,0,0,0,4.615,1.85,10.463,10.463,0,0,0,3.669.068,4.407,4.407,0,0,0,2.982-1.965c.524-.909.7-2.149,1.648-2.607a2.982,2.982,0,0,1,1.344-.2l3.931.042c1.224,0,2.673-.094,3.3-1.14a3.144,3.144,0,0,0,.356-1.446c.17-2.579-.325-5.3.736-7.657.32-.71-1.732-1.834-1.517-2.586a24.158,24.158,0,0,0,.917-7.314c0-2.083,1.355-3.878,2.474-5.637s2.054-3.978,1.171-5.864C273.814,386.812,266.336,383.754,265.159,386.791Z" transform="translate(-191.237 -316.918)" fill="#3f3d56"/>
    <path id="Path_141" data-name="Path 141" d="M330.13,752.8l1,.663.155.1.029.018,1.187.786,2.772.466,2.437-.168s.7-1.467-.4-1.433a2.3,2.3,0,0,1-1.006-.291l-.152-.076h0c-.16-.084-.32-.178-.477-.278h0c-.328-.207-.637-.432-.886-.624-.367-.283-.611-.5-.611-.5Z" transform="translate(-250.975 -586.98)" fill="#fbbebe"/>
    <path id="Path_142" data-name="Path 142" d="M334,757.619l.155.1.029.018,1.187.786,2.772.466,2.437-.168s.7-1.467-.4-1.433a2.3,2.3,0,0,1-1.006-.291c.194.152.356.317.372.456.044.375-1.8,1.048-1.8,1.048l-2.6-.689s-.443-.126-1.048-.283l-.058-.016Z" transform="translate(-253.831 -591.134)" opacity="0.1"/>
    <path id="Path_143" data-name="Path 143" d="M317,757.225a14.751,14.751,0,0,0,3.572.333c1.436-.134,3.91,1.1,3.91,1.1a10.966,10.966,0,0,0,3.407.561c2.571.168,2.571-1.137,2.571-1.137-.293-1.774-4.355-2.358-4.481-2.385h0a5.034,5.034,0,0,1,.477.278h0c.288.189.6.435.624.634.045.372-1.8,1.048-1.8,1.048l-2.6-.687s-.443-.128-1.048-.286h-.058a22.348,22.348,0,0,0-2.73-.563,1.9,1.9,0,0,0-1.813,1.048A.306.306,0,0,0,317,757.225Z" transform="translate(-241.286 -590.101)" fill="#3f3d56"/>
    <path id="Path_144" data-name="Path 144" d="M188.54,573.255l1.135.87s.33-.016.823-.031h.157c.7-.026,1.677-.052,2.5-.052a7.948,7.948,0,0,1,1.6.089c.566.2,1.572-3.239,1.572-3.239l-1.137-.262-.377-.089-.262-.063-.925-.218-2.8.32-1.971,1.268Z" transform="translate(-146.487 -453.254)" fill="#fbbebe"/>
    <path id="Path_145" data-name="Path 145" d="M188.54,573.255l1.135.87s.33-.016.823-.031a.994.994,0,0,1-.524-.469c-.734-2.036,2.906-2.906,2.906-2.906l1.7-.073.33-.016h.262l-.377-.089-.262-.063-.925-.218-2.8.32-1.971,1.268Z" transform="translate(-146.487 -453.254)" opacity="0.1"/>
    <path id="Path_146" data-name="Path 146" d="M178.977,571.238c.687.634,5.183,0,5.372-.016a2.831,2.831,0,0,1-1.019-.071,1.125,1.125,0,0,1-.786-.563c-.734-2.039,2.906-2.906,2.906-2.906l1.7-.073.328-.016,4.122-.178.2-1.135s-1.339.126-3.441.293c-1.182.1-2.62.2-4.174.307-4.342.288-5.374,3.105-5.374,3.105A.871.871,0,0,0,178.977,571.238Z" transform="translate(-139.162 -450.317)" fill="#3f3d56"/>
    <path id="Path_147" data-name="Path 147" d="M371.661,328.5a1.159,1.159,0,0,0,.1.178l1,1.467,2.6.262.029-1.032.438-15.534s1.8-10.419-1.6-9.819-1.268,9.819-1.268,9.819-.388,4.675-.66,6.079C372.036,321.275,370.849,326.794,371.661,328.5Z" transform="translate(-281.417 -256.761)" fill="#fbbebe"/>
    <path id="Path_148" data-name="Path 148" d="M350.14,541.788l.742,1.268,1.659,2.838s3.008,1.1,3.779.262a10.881,10.881,0,0,0,1.2-3.406c.262-1.09.438-2.01.438-2.01Z" transform="translate(-265.742 -431.469)" fill="#fbbebe"/>
    <path id="Path_149" data-name="Path 149" d="M350.14,541.825l.742,1.268a.878.878,0,0,0,.126-.134c.839-1.069,4.531-.228,6.509-.16.262-1.09.438-2.01.438-2.01Z" transform="translate(-265.742 -431.506)" opacity="0.1"/>
    <path id="Path_150" data-name="Path 150" d="M206.16,571.1a7.948,7.948,0,0,1,1.6.089c.566.2,1.572-3.239,1.572-3.239l-1.515-.356,4.122-.178.2-1.135s-1.339.126-3.441.294a4.324,4.324,0,0,0-1.145.956l-.063.079A6.868,6.868,0,0,0,206.16,571.1Z" transform="translate(-159.49 -450.317)" opacity="0.1"/>
    <path id="Path_151" data-name="Path 151" d="M330.13,752.772l1.156.765c1.724-.312,3.3-.8,3.485-1.572a.253.253,0,0,0,0-.037c-.367-.283-.611-.5-.611-.5Z" transform="translate(-250.975 -586.95)" opacity="0.1"/>
    <path id="Path_152" data-name="Path 152" d="M317.09,758.346a40.02,40.02,0,0,0,4.544-.487,22.319,22.319,0,0,0-2.733-.569A1.885,1.885,0,0,0,317.09,758.346Z" transform="translate(-241.352 -591.267)" opacity="0.1"/>
    <path id="Path_153" data-name="Path 153" d="M206.64,553.566c0,.836,2.3,1.37,2.3,1.37l7.015,6.244a27.718,27.718,0,0,1,7.211,4.808c2.8,2.838,5.277.4,5.277.4,2.972-.734,11.53-11.087,11.53-11.087s.2,11.823.6,12.691-.134,3.239-.367,4.242a11.791,11.791,0,0,0-.168,2.536s-3.2,12.256-2.937,13.325-1.737,6.079-1.737,6.079v4.174s7.848-.3,8.28-2.07-1.968-2.539-1.968-2.539v-.435c1.572-.8,1.868-6.31,1.868-6.31s2.34-6.813,2.673-7.948a7.431,7.431,0,0,0,0-2.841l.233-1.467a7.324,7.324,0,0,0,.5-1.2,2.972,2.972,0,0,1,.569-1.4c.367-.435-.4-1.47-.4-1.47l.668-1.737v-1.9l1.572-6.913s1.638-8.05,1.069-10.689a4.523,4.523,0,0,1,.668-3.973c-2.681,1.4-4.033-1.722-4.476-3.066-.113-.346-.168-.577-.168-.577a18.746,18.746,0,0,0-7.109-1.032,8.184,8.184,0,0,0-2.041.432c-3.807,1.37-4.408,7.046-4.408,7.046l-3.372,5.144c-1.737,4.575-4.342,5.042-4.342,5.042s-6.111-4.106-6.289-4.308a24.477,24.477,0,0,0-2.505-1.2,2.647,2.647,0,0,0-1.2-1.1c-.8-.335-.867-1.572-.867-1.572-.1-2.906-1.8-3.144-1.8-3.144C206.606,546.622,206.64,552.733,206.64,553.566Z" transform="translate(-159.844 -431.46)" fill="#3f3d56"/>
    <rect id="Rectangle_176" data-name="Rectangle 176" width="3.606" height="11.186" transform="translate(84.398 105.778) rotate(180)" fill="#f86d70"/>
    <rect id="Rectangle_177" data-name="Rectangle 177" width="3.606" height="11.186" transform="translate(84.398 105.778) rotate(180)" opacity="0.1"/>
    <path id="Path_154" data-name="Path 154" d="M372.439,397.41a.152.152,0,0,0,0,.024,1.159,1.159,0,0,0,.1.178l1,1.467,2.6.262.029-1.032A10.4,10.4,0,0,1,372.439,397.41Z" transform="translate(-282.197 -325.697)" opacity="0.1"/>
    <path id="Path_155" data-name="Path 155" d="M363.318,398.18s.134,5.875-1.336,6.677-2.041,4.979-2.041,4.979,4.455,2.93,5.448,4.219,3.273,4.36,2.8,5.094,1.137,4.075,1.137,4.075-2.94,6.011-2.272,8.283.734,8.28.734,8.28h1.271s-.4-4.942-.4-6.947,1.334-9.15,1.334-9.15.6-7.012,0-7.211-4.14-3.006-4.408-4.276,1.871-13.1,1.871-13.1A11.7,11.7,0,0,1,363.318,398.18Z" transform="translate(-272.974 -326.266)" fill="#f86d70"/>
    <path id="Path_156" data-name="Path 156" d="M336.12,452.474a5.718,5.718,0,0,0,.873,2.29l2.468-.419s7.413-1.672,8.943-1.808a9.558,9.558,0,0,0,2.683-.765,11.834,11.834,0,0,0-3.315-5.437l-.941-.873a15.761,15.761,0,0,0-4.743-3.032c.11.092,7.887,6.732,6.184,8.034s-6.289-1.868-6.289-1.868l-5.215-4.481-.189-.162-.3.469a4.371,4.371,0,0,1,.448.215,7.673,7.673,0,0,1,3.669,4.56C341.468,452.8,336.12,452.474,336.12,452.474Z" transform="translate(-255.395 -358.92)" opacity="0.1"/>
    <path id="Path_157" data-name="Path 157" d="M330,541.719s4.942,2.738,6.142,1.2a2.042,2.042,0,0,1,1.5-.524c-.113-.346-.168-.576-.168-.576a18.746,18.746,0,0,0-7.109-1.032C330.144,541.354,330,541.719,330,541.719Z" transform="translate(-250.879 -431.468)" fill="#444053"/>
    <path id="Path_158" data-name="Path 158" d="M332.275,443.98l5.4,4.649s4.567,3.181,6.289,1.868-6.187-8.037-6.187-8.037h0a15.984,15.984,0,0,1,4.74,3.024l.941.873c2.474,2.293,3.032,2.293,3.116,5.663a4.735,4.735,0,0,1-.48,2.238c-.8.786-1.363,6.5-1.239,7.164s-1.494,6.436-.97,8.039-6.551-.8-7.749.736-6.14-1.2-6.14-1.2,2.738-7.015,3.407-7.481,1.47-4.075,0-5.744a6.23,6.23,0,0,1-1.6-3.273s5.346.33,4.274-3.273a7.562,7.562,0,0,0-4.109-4.774Z" transform="translate(-250.879 -358.942)" fill="#e8e8f0"/>
    <path id="Path_159" data-name="Path 159" d="M350.4,493.38s-2.073,3.907-4.753,4.921c-.086.031-.17.06-.262.086C342.591,499.239,350.614,494.591,350.4,493.38Z" transform="translate(-261.798 -396.519)" opacity="0.1"/>
    <path id="Path_160" data-name="Path 160" d="M243.411,336.7a15.6,15.6,0,0,0,1.8,3.407c.8.867,6.745,9.551,6.745,9.551l.5,1.048.432.894,3.807-.4.262-1.536-.147-.178a17.988,17.988,0,0,0-2.125-2.227,24.618,24.618,0,0,1-2.6-2.869s-5.408-5.613-5.809-7.148-5.812-10.744-7.012-9.15S243.411,336.7,243.411,336.7Z" transform="translate(-183.791 -274.406)" fill="#fbbebe"/>
    <g id="Group_317" data-name="Group 317" transform="translate(63.97 68.597)" opacity="0.1">
      <path id="Path_161" data-name="Path 161" d="M278.878,519.069a2.985,2.985,0,0,0-1.344.194c-.943.459-1.122,1.7-1.646,2.607a4.406,4.406,0,0,1-2.985,1.965,6.68,6.68,0,0,1-.723.1,8.209,8.209,0,0,0,2.3-.1,4.406,4.406,0,0,0,2.985-1.965c.524-.909.7-2.149,1.646-2.607a2.1,2.1,0,0,1,.786-.183Z" transform="translate(-272.18 -484.066)"/>
      <path id="Path_162" data-name="Path 162" d="M319.991,400.423c0-2.083,1.355-3.878,2.471-5.637s2.054-3.978,1.171-5.864c-.755-1.612-5.3-3.773-7.929-3.346,2.571.333,5.739,2.026,6.357,3.346.883,1.887-.055,4.106-1.171,5.864s-2.476,3.553-2.471,5.637a24.462,24.462,0,0,1-.92,7.314c-.212.747,1.834,1.876,1.52,2.584-1.064,2.358-.566,5.078-.736,7.657a3.184,3.184,0,0,1-.359,1.446,3.064,3.064,0,0,1-2.644,1.132h.914c1.221,0,2.67-.094,3.3-1.14a3.183,3.183,0,0,0,.359-1.446c.17-2.578-.328-5.3.736-7.657.32-.708-1.732-1.834-1.52-2.584A24.171,24.171,0,0,0,319.991,400.423Z" transform="translate(-303.986 -385.521)"/>
    </g>
    <path id="Path_163" data-name="Path 163" d="M290.12,411.461l.432.894,3.807-.4.262-1.536-.147-.178C294.069,410.439,291.027,411.9,290.12,411.461Z" transform="translate(-221.449 -335.165)" opacity="0.1"/>
    <path id="Path_164" data-name="Path 164" d="M304.791,422.007s-.936-1.467-1.47-1.069-.742-1.2-1.048-.935-1.2,1.011-1.572-.029c-.291-.828-3.456-6.066-4.74-8.173-.33-.545-.537-.88-.537-.88s-3.606,1.8-4.473,1.2v1.268l.734.068,3.931,7.337s1.237,1.968,1.153,2.654,1.585,3.692,1.853,3.891,3.144,3.54,3.144,3.54,1.47,7.214.2,9.219a13.676,13.676,0,0,1-3.472,3.472,11.21,11.21,0,0,0-.566,2.138c.1.2-.77,1.069-.37,1.336s.936,2.136.936,2.136,1.871-3.006,2.882-3.472,2.306-6.614,2.306-6.614.369-3.621.4-5.959S303.989,422.007,304.791,422.007Z" transform="translate(-222.062 -335.667)" opacity="0.1"/>
    <path id="Path_165" data-name="Path 165" d="M304.021,422.007s-.933-1.467-1.467-1.069-.744-1.2-1.048-.935-1.2,1.011-1.572-.029c-.293-.828-3.459-6.066-4.74-8.173l-.537-.88s-3.606,1.8-4.476,1.2v1.268l.736.068,3.931,7.337s1.239,1.968,1.153,2.654,1.572,3.692,1.853,3.891,3.145,3.54,3.145,3.54,1.47,7.214.2,9.219a12.284,12.284,0,0,1-2.419,2.678,4.675,4.675,0,0,0-1.572,2.521,1,1,0,0,0-.047.419c.1.2-.77,1.069-.369,1.336s.941,2.143.941,2.143,1.871-3.006,2.882-3.472,2.309-6.614,2.309-6.614.367-3.621.4-5.959S303.235,422.007,304.021,422.007Z" transform="translate(-221.493 -335.667)" fill="#f86d70"/>
    <path id="Path_166" data-name="Path 166" d="M307.113,569.21a13.437,13.437,0,0,1,3.931,1.334c1.124.81-4.274-1.268-4.274-1.268Z" transform="translate(-233.736 -452.479)" opacity="0.1"/>
    <path id="Path_167" data-name="Path 167" d="M333.83,596.35s2.927,2.44,2.4,4.643-1.876,7.749-1.876,7.749Z" transform="translate(-253.705 -472.507)" opacity="0.1"/>
    <path id="Path_168" data-name="Path 168" d="M225.242,578.45s-4.125.451-3.857.985,3.857-.493,3.857-.493Z" transform="translate(-170.716 -459.298)" opacity="0.1"/>
    <path id="Path_169" data-name="Path 169" d="M351.169,652.04s.262.333-1.268,0-.4-1.36-.4-1.36Z" transform="translate(-264.973 -512.601)" opacity="0.1"/>
    <path id="Path_170" data-name="Path 170" d="M345.407,673.043a9.747,9.747,0,0,1-3.22,0C341.063,672.711,345.407,673.043,345.407,673.043Z" transform="translate(-259.735 -528.995)" opacity="0.1"/>
    <path id="Path_171" data-name="Path 171" d="M323.492,741.972s-.367-.4-2.2.333-2.571.768-3.105.524S323.492,741.972,323.492,741.972Z" transform="translate(-242.133 -579.89)" opacity="0.1"/>
    <path id="Path_172" data-name="Path 172" d="M338.985,576.28l-2.6,3.624S337.782,576.731,338.985,576.28Z" transform="translate(-255.587 -457.696)" opacity="0.1"/>
    <path id="Path_173" data-name="Path 173" d="M316.322,449.15s-.113,1.2-1.792,1.672a4.59,4.59,0,0,0-2,.849" transform="translate(-237.987 -363.879)" opacity="0.1"/>
    <path id="Path_174" data-name="Path 174" d="M297.581,415.88a7.19,7.19,0,0,1-4.531,1.239" transform="translate(-223.611 -339.327)" opacity="0.1"/>
    <path id="Path_175" data-name="Path 175" d="M316.78,540.49s.647.406,2.2-1.37" transform="translate(-241.123 -430.274)" opacity="0.1"/>
    <path id="Path_176" data-name="Path 176" d="M372.835,466.431a1.138,1.138,0,0,0-.375-.88l-.435-.524a2.018,2.018,0,0,0-.286-.293c-.262-.2-.6-.262-.87-.443" transform="translate(-281.039 -375.052)" opacity="0.1"/>
    <path id="Path_177" data-name="Path 177" d="M859.87,123.769S837.809,122.438,840.4,137.9a3.757,3.757,0,0,0,1.96,3.973s.039-1.145,2.264-.755a10.35,10.35,0,0,0,2.4.115,4.994,4.994,0,0,0,2.93-1.211h0s6.2-2.563,8.613-12.7c0,0,1.784-2.212,1.714-2.78l-3.724,1.591s1.273,2.686.262,4.918c0,0-.121-4.822-.836-4.717-.144.024-1.934.93-1.934.93s2.188,4.677.537,8.079c0,0,.626-5.765-1.221-7.741l-2.62,1.53s2.558,4.832.823,8.776c0,0,.445-6.048-1.376-8.4l-2.374,1.853s2.4,4.764.938,8.034c0,0-.191-7.041-1.452-7.573a14.6,14.6,0,0,0-2.4,2.584s1.646,3.459.624,5.283c0,0-.626-4.691-1.14-4.717,0,0-2.07,3.108-2.285,5.241a11.291,11.291,0,0,1,1.785-5.534,6.239,6.239,0,0,0-3.171,1.64s.322-2.2,3.682-2.387a14.514,14.514,0,0,1,2.167-2.5,13.635,13.635,0,0,0-5.364.618s1.782-2.073,5.977-1.129L849.53,129s-4.4-.6-6.263.063c0,0,2.146-1.834,6.894-.5l2.552-1.525a23.415,23.415,0,0,0-5.982-.524s2.358-1.271,6.732.107l1.834-.82s-2.746-.54-3.551-.626-.846-.307-.846-.307a9.525,9.525,0,0,1,5.16.574S859.938,124.013,859.87,123.769Z" transform="translate(-627.379 -123.74)" fill="#6c63ff" opacity="0.1"/>
    <path id="Path_178" data-name="Path 178" d="M786.424,138.823s-9.958-.6-8.791,6.383a1.708,1.708,0,0,0,.883,1.8s.018-.524,1.025-.343a4.589,4.589,0,0,0,1.082.052,2.246,2.246,0,0,0,1.323-.548h0s2.8-1.156,3.894-5.736c0,0,.8-1,.773-1.258l-1.682.718a3.017,3.017,0,0,1,.123,2.225s-.055-2.18-.377-2.128c-.066,0-.875.419-.875.419s.99,2.115.244,3.653c0,0,.283-2.6-.553-3.5l-1.184.692s1.158,2.183.372,3.965c0,0,.2-2.733-.621-3.8l-1.072.846s1.085,2.154.425,3.629c0,0-.087-3.181-.658-3.42a6.573,6.573,0,0,0-1.082,1.169s.744,1.572.283,2.385c0,0-.283-2.12-.524-2.128a7.108,7.108,0,0,0-1.032,2.358,5.123,5.123,0,0,1,.807-2.5,2.819,2.819,0,0,0-1.433.742s.147-.99,1.664-1.08a7.161,7.161,0,0,1,.98-1.129,6.145,6.145,0,0,0-2.424.28,2.738,2.738,0,0,1,2.7-.524l1.048-.865a9.042,9.042,0,0,0-2.83.029s.97-.828,3.116-.225l1.153-.689a10.363,10.363,0,0,0-2.7-.233,4.137,4.137,0,0,1,3.042.047l.825-.369s-1.242-.246-1.606-.283-.383-.139-.383-.139a4.3,4.3,0,0,1,2.332.262A10.57,10.57,0,0,0,786.424,138.823Z" transform="translate(-581.144 -134.861)" fill="#6c63ff" opacity="0.1"/>
    <ellipse id="Ellipse_6" data-name="Ellipse 6" cx="10.537" cy="1.782" rx="10.537" ry="1.782" transform="translate(229.527 166.961)" fill="#6c63ff"/>
    <path id="Path_179" data-name="Path 179" d="M933.379,742.9a3.05,3.05,0,0,0,1-1.517,1.353,1.353,0,0,0-.7-1.543c-.645-.246-1.334.2-1.855.652a2.476,2.476,0,0,1-1.8.87,2.751,2.751,0,0,0,.849-2.571,1.079,1.079,0,0,0-.236-.524c-.359-.383-1.006-.22-1.436.081-1.363.959-1.743,2.812-1.75,4.476a8.419,8.419,0,0,1-.024-1.834,1.89,1.89,0,0,0-.694-1.633,2.074,2.074,0,0,0-1.048-.246,2.176,2.176,0,0,0-1.711.487,1.689,1.689,0,0,0,.065,2.1,6.67,6.67,0,0,0,1.774,1.42,3.93,3.93,0,0,1,1.266,1.208,1.089,1.089,0,0,1,.094.217h3.841A10.68,10.68,0,0,0,933.379,742.9Z" transform="translate(-688.958 -577.073)" fill="#6c63ff"/>
  </g>
</svg>
